<svg xmlns="http://www.w3.org/2000/svg" viewBox="0 0 120 136"><rect x="32" y="80" width="56" height="50" rx="22" fill="#F4F2EE" stroke="#2D2A4A" stroke-width="3" stroke-linejoin="round" stroke-linecap="round"></rect><ellipse cx="60" cy="108" rx="16" ry="14" fill="#FFFFFF"></ellipse><rect x="36" y="124" width="18" height="10" rx="5" fill="#F4F2EE" stroke="#2D2A4A" stroke-width="3" stroke-linejoin="round" stroke-linecap="round"></rect><rect x="66" y="124" width="18" height="10" rx="5" fill="#F4F2EE" stroke="#2D2A4A" stroke-width="3" stroke-linejoin="round" stroke-linecap="round"></rect><rect x="36" y="2" width="16" height="46" rx="8" fill="#F4F2EE" stroke="#2D2A4A" stroke-width="3" stroke-linejoin="round" stroke-linecap="round"></rect><rect x="68" y="2" width="16" height="46" rx="8" fill="#F4F2EE" stroke="#2D2A4A" stroke-width="3" stroke-linejoin="round" stroke-linecap="round"></rect><rect x="40" y="8" width="8" height="32" rx="4" fill="#F4A7A0" stroke="#2D2A4A" stroke-width="0" stroke-linejoin="round" stroke-linecap="round"></rect><rect x="72" y="8" width="8" height="32" rx="4" fill="#F4A7A0" stroke="#2D2A4A" stroke-width="0" stroke-linejoin="round" stroke-linecap="round"></rect><rect x="24" y="30" width="72" height="58" rx="28" fill="#F4F2EE" stroke="#2D2A4A" stroke-width="3" stroke-linejoin="round" stroke-linecap="round"></rect><ellipse cx="60" cy="68" rx="5" ry="4" fill="#F28C9B"></ellipse><rect x="55" y="75" width="10" height="8" rx="2" fill="#FFFFFF" stroke="#2D2A4A" stroke-width="2" stroke-linejoin="round" stroke-linecap="round"></rect><path d="M38 58 Q45 48 52 58 M68 58 Q75 48 82 58" fill="none" stroke="#2D2A4A" stroke-width="4" stroke-linejoin="round" stroke-linecap="round"></path><path d="M52 78 Q60 79 68 78 Q67 88 60 88 Q53 88 52 78 Z" fill="#7A2E3B" stroke="#2D2A4A" stroke-width="2.5" stroke-linejoin="round" stroke-linecap="round"></path><path d="M56 85 Q60 82 64 85 Q63 87.5 60 87.5 Q57 87.5 56 85 Z" fill="#F28C9B"></path><rect x="18" y="62" width="16" height="26" rx="8" fill="#F4F2EE" stroke="#2D2A4A" stroke-width="3" stroke-linejoin="round" stroke-linecap="round" transform="rotate(-24 26 88)"></rect><rect x="86" y="62" width="16" height="26" rx="8" fill="#F4F2EE" stroke="#2D2A4A" stroke-width="3" stroke-linejoin="round" stroke-linecap="round" transform="rotate(24 94 88)"></rect></svg>