<svg xmlns="http://www.w3.org/2000/svg" viewBox="-52 -60 104 112"><defs><pattern id="px" width="16" height="16" patternUnits="userSpaceOnUse"><rect width="4" height="4" fill="#FFFFFF" fill-opacity=".14"></rect><rect x="8" y="4" width="4" height="4" fill="#2D2A4A" fill-opacity=".07"></rect><rect x="4" y="12" width="4" height="4" fill="#2D2A4A" fill-opacity=".06"></rect><rect x="12" y="8" width="4" height="4" fill="#FFFFFF" fill-opacity=".1"></rect></pattern></defs>
<path d="M-48 0 L0 24 L0 46 L-48 22 Z" fill="#70B458" stroke="#2D2A4A" stroke-width="2.5" stroke-linejoin="round"></path>
<path d="M48 0 L0 24 L0 46 L48 22 Z" fill="#659E56" stroke="#2D2A4A" stroke-width="2.5" stroke-linejoin="round"></path>
<path d="M0 -24 L48 0 L0 24 L-48 0 Z" fill="#8BD16E" stroke="#2D2A4A" stroke-width="2.5" stroke-linejoin="round"></path>
<path d="M-48 0 L0 24 L0 46 L-48 22 Z" fill="url(#px)"></path>
<path d="M48 0 L0 24 L0 46 L48 22 Z" fill="url(#px)"></path>
<path d="M0 -24 L48 0 L0 24 L-48 0 Z" fill="url(#px)"></path>
<g transform="translate(14 -54)"><circle cx="16" cy="16" r="14.5" fill="#FFFFFF" stroke="#2D2A4A" stroke-width="3"></circle><path d="M9.5 16.5 L14 21 L22.5 12" fill="none" stroke="#25964F" stroke-width="4.5" stroke-linecap="round" stroke-linejoin="round"></path></g><g transform="translate(-12 -12)"><circle cx="12" cy="12" r="11" fill="#FFC21A" stroke="#FFFFFF" stroke-width="3"></circle><circle cx="12" cy="12" r="12.5" fill="none" stroke="#2D2A4A" stroke-width="1.5"></circle><path d="M12 17 C12 17 6.5 13.8 6.5 10.3 C6.5 8.6 7.8 7.3 9.4 7.3 C10.5 7.3 11.4 7.9 12 8.8 C12.6 7.9 13.5 7.3 14.6 7.3 C16.2 7.3 17.5 8.6 17.5 10.3 C17.5 13.8 12 17 12 17 Z" fill="#2D2A4A"></path></g>
</svg>