<svg xmlns="http://www.w3.org/2000/svg" viewBox="-52 -60 104 112"><defs><pattern id="px" width="16" height="16" patternUnits="userSpaceOnUse"><rect width="4" height="4" fill="#FFFFFF" fill-opacity=".14"></rect><rect x="8" y="4" width="4" height="4" fill="#2D2A4A" fill-opacity=".07"></rect><rect x="4" y="12" width="4" height="4" fill="#2D2A4A" fill-opacity=".06"></rect><rect x="12" y="8" width="4" height="4" fill="#FFFFFF" fill-opacity=".1"></rect></pattern></defs>
<path d="M-48 0 L0 24 L0 46 L-48 22 Z" fill="#E2AD21" stroke="#2D2A4A" stroke-width="2.5" stroke-linejoin="round"></path>
<path d="M48 0 L0 24 L0 46 L48 22 Z" fill="#C49727" stroke="#2D2A4A" stroke-width="2.5" stroke-linejoin="round"></path>
<path d="M0 -24 L48 0 L0 24 L-48 0 Z" fill="#FFEAB1" stroke="#2D2A4A" stroke-width="2.5" stroke-linejoin="round"></path>
<path d="M-48 0 L0 24 L0 46 L-48 22 Z" fill="url(#px)"></path>
<path d="M48 0 L0 24 L0 46 L48 22 Z" fill="url(#px)"></path>
<path d="M0 -24 L48 0 L0 24 L-48 0 Z" fill="url(#px)"></path>
<g transform="translate(-17 -40)"><path d="M17 2.5 L21.2 12.8 L32.3 13.5 L23.7 20.6 L26.4 31.4 L17 25.4 L7.6 31.4 L10.3 20.6 L1.7 13.5 L12.8 12.8 Z" fill="#FFC21A" stroke="#2D2A4A" stroke-width="2.5" stroke-linejoin="round"></path></g>
</svg>