<svg xmlns="http://www.w3.org/2000/svg" viewBox="-52 -60 104 112"><defs><pattern id="px" width="16" height="16" patternUnits="userSpaceOnUse"><rect width="4" height="4" fill="#FFFFFF" fill-opacity=".14"></rect><rect x="8" y="4" width="4" height="4" fill="#2D2A4A" fill-opacity=".07"></rect><rect x="4" y="12" width="4" height="4" fill="#2D2A4A" fill-opacity=".06"></rect><rect x="12" y="8" width="4" height="4" fill="#FFFFFF" fill-opacity=".1"></rect></pattern></defs>
<path d="M-48 0 L0 24 L0 46 L-48 22 Z" fill="#928DA6" stroke="#2D2A4A" stroke-width="2.5" stroke-linejoin="round"></path>
<path d="M48 0 L0 24 L0 46 L48 22 Z" fill="#827D97" stroke="#2D2A4A" stroke-width="2.5" stroke-linejoin="round"></path>
<path d="M0 -24 L48 0 L0 24 L-48 0 Z" fill="#C9C4D6" stroke="#2D2A4A" stroke-width="2.5" stroke-linejoin="round"></path>
<g transform="translate(-20 -52)"><circle cx="20" cy="20" r="19" fill="#FFFFFF" stroke="#2D2A4A" stroke-width="3"></circle><g transform="translate(6 5) scale(.6)" fill="#2D2A4A"><path d="M16 21 L16 15 C16 10.6 19.6 7 24 7 C28.4 7 32 10.6 32 15 L32 21" fill="none" stroke="#2D2A4A" stroke-width="5" stroke-linecap="round"></path><path fill-rule="evenodd" d="M15 20 H33 A5 5 0 0 1 38 25 V37 A5 5 0 0 1 33 42 H15 A5 5 0 0 1 10 37 V25 A5 5 0 0 1 15 20 Z M20.8 29 A3.2 3.2 0 1 0 27.2 29 A3.2 3.2 0 1 0 20.8 29 Z"></path></g></g>
</svg>