<svg xmlns="http://www.w3.org/2000/svg" viewBox="0 0 240 196"><path d="M8 186 Q28 176 48 186 T88 186 T128 186 T168 186 T208 186 T248 186" fill="none" stroke="#3FA9F5" stroke-width="4" stroke-linecap="round"></path><rect x="116" y="18" width="8" height="116" rx="3" fill="#B7844F" stroke="#2D2A4A" stroke-width="4.5" stroke-linejoin="round" stroke-linecap="round"></rect><path d="M128 26 L204 124 L128 124 Z" fill="#FFFFFF" stroke="#2D2A4A" stroke-width="4.5" stroke-linejoin="round" stroke-linecap="round"></path><path d="M128 84 L173 84" stroke="#3FA9F5" stroke-width="8"></path><path d="M128 26 L204 124 L128 124 Z" fill="none" stroke="#2D2A4A" stroke-width="4.5" stroke-linejoin="round" stroke-linecap="round"></path><path d="M112 40 L48 124 L112 124 Z" fill="#E0F1FD" stroke="#2D2A4A" stroke-width="4.5" stroke-linejoin="round" stroke-linecap="round"></path><path d="M124 20 L148 26 L124 32 Z" fill="#FFC21A" stroke="#2D2A4A" stroke-width="3" stroke-linejoin="round"></path><path d="M18 132 L222 132 L198 176 Q194 184 184 184 L56 184 Q46 184 42 176 Z" fill="#3FA9F5" stroke="#2D2A4A" stroke-width="4.5" stroke-linejoin="round" stroke-linecap="round"></path><path d="M30 146 H210" stroke="#FFFFFF" stroke-width="5" stroke-linecap="round"></path><circle cx="80" cy="162" r="7" fill="#FFFFFF" stroke="#2D2A4A" stroke-width="3"></circle><circle cx="120" cy="162" r="7" fill="#FFFFFF" stroke="#2D2A4A" stroke-width="3"></circle><circle cx="160" cy="162" r="7" fill="#FFFFFF" stroke="#2D2A4A" stroke-width="3"></circle></svg>