<svg xmlns="http://www.w3.org/2000/svg" viewBox="0 -30 200 250" fill="#2D2A4A"><g id="pufka" transform="translate(0 0)"><g id="tail"><circle cx="174.0" cy="112.0" r="11" fill="#2D2A4A" stroke="#2D2A4A" stroke-width="4.5" stroke-linejoin="round" stroke-linecap="round"></circle><circle cx="168.7" cy="122.9" r="11" fill="#2D2A4A" stroke="#2D2A4A" stroke-width="4.5" stroke-linejoin="round" stroke-linecap="round"></circle><circle cx="156.9" cy="125.6" r="11" fill="#2D2A4A" stroke="#2D2A4A" stroke-width="4.5" stroke-linejoin="round" stroke-linecap="round"></circle><circle cx="147.4" cy="118.1" r="11" fill="#2D2A4A" stroke="#2D2A4A" stroke-width="4.5" stroke-linejoin="round" stroke-linecap="round"></circle><circle cx="147.4" cy="105.9" r="11" fill="#2D2A4A" stroke="#2D2A4A" stroke-width="4.5" stroke-linejoin="round" stroke-linecap="round"></circle><circle cx="156.9" cy="98.4" r="11" fill="#2D2A4A" stroke="#2D2A4A" stroke-width="4.5" stroke-linejoin="round" stroke-linecap="round"></circle><circle cx="168.7" cy="101.1" r="11" fill="#2D2A4A" stroke="#2D2A4A" stroke-width="4.5" stroke-linejoin="round" stroke-linecap="round"></circle><circle cx="160" cy="112" r="16" fill="#2D2A4A"></circle></g><g id="legs" transform="translate(0 0)"><g transform=""><rect x="68" y="172" width="26" height="30" rx="10" fill="#2D2A4A" stroke="#2D2A4A" stroke-width="4.5" stroke-linejoin="round" stroke-linecap="round"></rect><rect x="63" y="192" width="36" height="17" rx="8.5" fill="#2D2A4A" stroke="#2D2A4A" stroke-width="4.5" stroke-linejoin="round" stroke-linecap="round"></rect></g><g transform=""><rect x="106" y="172" width="26" height="30" rx="10" fill="#2D2A4A" stroke="#2D2A4A" stroke-width="4.5" stroke-linejoin="round" stroke-linecap="round"></rect><rect x="101" y="192" width="36" height="17" rx="8.5" fill="#2D2A4A" stroke="#2D2A4A" stroke-width="4.5" stroke-linejoin="round" stroke-linecap="round"></rect></g></g><g id="chest-fluff"><circle cx="140.0" cy="150.0" r="13" fill="#2D2A4A" stroke="#2D2A4A" stroke-width="4.5" stroke-linejoin="round" stroke-linecap="round"></circle><circle cx="136.0" cy="164.8" r="13" fill="#2D2A4A" stroke="#2D2A4A" stroke-width="4.5" stroke-linejoin="round" stroke-linecap="round"></circle><circle cx="124.9" cy="176.6" r="13" fill="#2D2A4A" stroke="#2D2A4A" stroke-width="4.5" stroke-linejoin="round" stroke-linecap="round"></circle><circle cx="108.9" cy="183.1" r="13" fill="#2D2A4A" stroke="#2D2A4A" stroke-width="4.5" stroke-linejoin="round" stroke-linecap="round"></circle><circle cx="91.1" cy="183.1" r="13" fill="#2D2A4A" stroke="#2D2A4A" stroke-width="4.5" stroke-linejoin="round" stroke-linecap="round"></circle><circle cx="75.1" cy="176.6" r="13" fill="#2D2A4A" stroke="#2D2A4A" stroke-width="4.5" stroke-linejoin="round" stroke-linecap="round"></circle><circle cx="64.0" cy="164.8" r="13" fill="#2D2A4A" stroke="#2D2A4A" stroke-width="4.5" stroke-linejoin="round" stroke-linecap="round"></circle><circle cx="60.0" cy="150.0" r="13" fill="#2D2A4A" stroke="#2D2A4A" stroke-width="4.5" stroke-linejoin="round" stroke-linecap="round"></circle><circle cx="64.0" cy="135.2" r="13" fill="#2D2A4A" stroke="#2D2A4A" stroke-width="4.5" stroke-linejoin="round" stroke-linecap="round"></circle><circle cx="75.1" cy="123.4" r="13" fill="#2D2A4A" stroke="#2D2A4A" stroke-width="4.5" stroke-linejoin="round" stroke-linecap="round"></circle><circle cx="91.1" cy="116.9" r="13" fill="#2D2A4A" stroke="#2D2A4A" stroke-width="4.5" stroke-linejoin="round" stroke-linecap="round"></circle><circle cx="108.9" cy="116.9" r="13" fill="#2D2A4A" stroke="#2D2A4A" stroke-width="4.5" stroke-linejoin="round" stroke-linecap="round"></circle><circle cx="124.9" cy="123.4" r="13" fill="#2D2A4A" stroke="#2D2A4A" stroke-width="4.5" stroke-linejoin="round" stroke-linecap="round"></circle><circle cx="136.0" cy="135.2" r="13" fill="#2D2A4A" stroke="#2D2A4A" stroke-width="4.5" stroke-linejoin="round" stroke-linecap="round"></circle><ellipse cx="100" cy="150" rx="42" ry="36" fill="#2D2A4A"></ellipse></g><g id="body"><rect x="54" y="110" width="92" height="82" rx="26" fill="#2D2A4A" stroke="#2D2A4A" stroke-width="4.5" stroke-linejoin="round" stroke-linecap="round"></rect><path d="M80 116 L120 116 L100 152 Z" fill="#2D2A4A"></path><path d="M56 140 Q56 128 68 128 L85 128 L100 153 L115 128 L132 128 Q144 128 144 140 L144 177 Q144 190 130 190 L70 190 Q56 190 56 177 Z" fill="#2D2A4A" stroke="#2D2A4A" stroke-width="4" stroke-linejoin="round"></path><rect x="57" y="160" width="86" height="10" fill="#2D2A4A" stroke="#2D2A4A" stroke-width="2.5"></rect><rect x="63" y="114" width="74" height="12" rx="6" fill="#2D2A4A" stroke="#2D2A4A" stroke-width="3.5"></rect><rect x="91" y="123" width="18" height="18" rx="5" fill="#2D2A4A" stroke="#2D2A4A" stroke-width="3"></rect><path d="M95.5 129.5 L100 127 L104.5 129.5 L100 132 Z M95.5 129.5 V135 L100 137.5 V132 M104.5 129.5 V135 L100 137.5" fill="none" stroke="#2D2A4A" stroke-width="1.5" stroke-linejoin="round"></path></g><g id="headwrap" transform="rotate(0 100 120)"><path d="M50 40 L56 -6 L86 24 Z" fill="#2D2A4A" stroke="#2D2A4A" stroke-width="4.5" stroke-linejoin="round" stroke-linecap="round"></path><path d="M150 40 L144 -6 L114 24 Z" fill="#2D2A4A" stroke="#2D2A4A" stroke-width="4.5" stroke-linejoin="round" stroke-linecap="round"></path><path d="M58 28 L61 6 L76 22 Z M142 28 L139 6 L124 22 Z" fill="#2D2A4A"></path><g id="head"><circle cx="166.0" cy="70.0" r="12" fill="#2D2A4A" stroke="#2D2A4A" stroke-width="4.5" stroke-linejoin="round" stroke-linecap="round"></circle><circle cx="164.1" cy="82.9" r="12" fill="#2D2A4A" stroke="#2D2A4A" stroke-width="4.5" stroke-linejoin="round" stroke-linecap="round"></circle><circle cx="158.4" cy="95.1" r="12" fill="#2D2A4A" stroke="#2D2A4A" stroke-width="4.5" stroke-linejoin="round" stroke-linecap="round"></circle><circle cx="149.4" cy="105.8" r="12" fill="#2D2A4A" stroke="#2D2A4A" stroke-width="4.5" stroke-linejoin="round" stroke-linecap="round"></circle><circle cx="137.5" cy="114.4" r="12" fill="#2D2A4A" stroke="#2D2A4A" stroke-width="4.5" stroke-linejoin="round" stroke-linecap="round"></circle><circle cx="123.4" cy="120.5" r="12" fill="#2D2A4A" stroke="#2D2A4A" stroke-width="4.5" stroke-linejoin="round" stroke-linecap="round"></circle><circle cx="108.0" cy="123.6" r="12" fill="#2D2A4A" stroke="#2D2A4A" stroke-width="4.5" stroke-linejoin="round" stroke-linecap="round"></circle><circle cx="92.0" cy="123.6" r="12" fill="#2D2A4A" stroke="#2D2A4A" stroke-width="4.5" stroke-linejoin="round" stroke-linecap="round"></circle><circle cx="76.6" cy="120.5" r="12" fill="#2D2A4A" stroke="#2D2A4A" stroke-width="4.5" stroke-linejoin="round" stroke-linecap="round"></circle><circle cx="62.5" cy="114.4" r="12" fill="#2D2A4A" stroke="#2D2A4A" stroke-width="4.5" stroke-linejoin="round" stroke-linecap="round"></circle><circle cx="50.6" cy="105.8" r="12" fill="#2D2A4A" stroke="#2D2A4A" stroke-width="4.5" stroke-linejoin="round" stroke-linecap="round"></circle><circle cx="41.6" cy="95.1" r="12" fill="#2D2A4A" stroke="#2D2A4A" stroke-width="4.5" stroke-linejoin="round" stroke-linecap="round"></circle><circle cx="35.9" cy="82.9" r="12" fill="#2D2A4A" stroke="#2D2A4A" stroke-width="4.5" stroke-linejoin="round" stroke-linecap="round"></circle><circle cx="34.0" cy="70.0" r="12" fill="#2D2A4A" stroke="#2D2A4A" stroke-width="4.5" stroke-linejoin="round" stroke-linecap="round"></circle><circle cx="35.9" cy="57.1" r="12" fill="#2D2A4A" stroke="#2D2A4A" stroke-width="4.5" stroke-linejoin="round" stroke-linecap="round"></circle><circle cx="41.6" cy="44.9" r="12" fill="#2D2A4A" stroke="#2D2A4A" stroke-width="4.5" stroke-linejoin="round" stroke-linecap="round"></circle><circle cx="50.6" cy="34.2" r="12" fill="#2D2A4A" stroke="#2D2A4A" stroke-width="4.5" stroke-linejoin="round" stroke-linecap="round"></circle><circle cx="62.5" cy="25.6" r="12" fill="#2D2A4A" stroke="#2D2A4A" stroke-width="4.5" stroke-linejoin="round" stroke-linecap="round"></circle><circle cx="76.6" cy="19.5" r="12" fill="#2D2A4A" stroke="#2D2A4A" stroke-width="4.5" stroke-linejoin="round" stroke-linecap="round"></circle><circle cx="92.0" cy="16.4" r="12" fill="#2D2A4A" stroke="#2D2A4A" stroke-width="4.5" stroke-linejoin="round" stroke-linecap="round"></circle><circle cx="108.0" cy="16.4" r="12" fill="#2D2A4A" stroke="#2D2A4A" stroke-width="4.5" stroke-linejoin="round" stroke-linecap="round"></circle><circle cx="123.4" cy="19.5" r="12" fill="#2D2A4A" stroke="#2D2A4A" stroke-width="4.5" stroke-linejoin="round" stroke-linecap="round"></circle><circle cx="137.5" cy="25.6" r="12" fill="#2D2A4A" stroke="#2D2A4A" stroke-width="4.5" stroke-linejoin="round" stroke-linecap="round"></circle><circle cx="149.4" cy="34.2" r="12" fill="#2D2A4A" stroke="#2D2A4A" stroke-width="4.5" stroke-linejoin="round" stroke-linecap="round"></circle><circle cx="158.4" cy="44.9" r="12" fill="#2D2A4A" stroke="#2D2A4A" stroke-width="4.5" stroke-linejoin="round" stroke-linecap="round"></circle><circle cx="164.1" cy="57.1" r="12" fill="#2D2A4A" stroke="#2D2A4A" stroke-width="4.5" stroke-linejoin="round" stroke-linecap="round"></circle><rect x="36" y="18" width="128" height="104" rx="36" fill="#2D2A4A"></rect><ellipse cx="100" cy="92" rx="30" ry="22" fill="#2D2A4A"></ellipse><rect x="88" y="72" width="24" height="16" rx="8" fill="#2D2A4A"></rect><ellipse cx="95" cy="76" rx="3.2" ry="2" fill="#2D2A4A"></ellipse></g><g id="eyes"><ellipse cx="70" cy="56" rx="14.0" ry="16.0" fill="#2D2A4A" stroke="#2D2A4A" stroke-width="3.5"></ellipse><ellipse cx="130" cy="56" rx="14.0" ry="16.0" fill="#2D2A4A" stroke="#2D2A4A" stroke-width="3.5"></ellipse><ellipse cx="72" cy="59" rx="9.0" ry="11.0" fill="#2D2A4A"></ellipse><ellipse cx="128" cy="59" rx="9.0" ry="11.0" fill="#2D2A4A"></ellipse><circle cx="75.5" cy="54" r="3.5" fill="#2D2A4A"></circle><circle cx="131.5" cy="54" r="3.5" fill="#2D2A4A"></circle></g><g id="mouth"><path d="M100 87 V92" stroke="#2D2A4A" stroke-width="3.5" stroke-linecap="round"></path><path d="M84 90 Q92 102 100 93 Q108 102 116 90" fill="none" stroke="#2D2A4A" stroke-width="3.5" stroke-linecap="round" stroke-linejoin="round"></path></g><g id="ears"></g><g id="accessory"></g></g><g id="paw-l" transform="translate(50 134) rotate(6)"><rect x="-13" y="-8" width="26" height="54" rx="13" fill="#2D2A4A" stroke="#2D2A4A" stroke-width="4.5" stroke-linejoin="round" stroke-linecap="round"></rect><rect x="-13" y="29" width="26" height="18" rx="9" fill="#2D2A4A" stroke="#2D2A4A" stroke-width="4.5" stroke-linejoin="round" stroke-linecap="round"></rect></g><g id="paw-r" transform="translate(150 134) rotate(-6)"><rect x="-13" y="-8" width="26" height="54" rx="13" fill="#2D2A4A" stroke="#2D2A4A" stroke-width="4.5" stroke-linejoin="round" stroke-linecap="round"></rect><rect x="-13" y="29" width="26" height="18" rx="9" fill="#2D2A4A" stroke="#2D2A4A" stroke-width="4.5" stroke-linejoin="round" stroke-linecap="round"></rect></g></g></svg>