<svg xmlns="http://www.w3.org/2000/svg" viewBox="0 -30 200 250"><ellipse cx="100" cy="212" rx="56" ry="7" fill="#2D2A4A" opacity=".12"></ellipse><g id="iskra" transform="translate(0 0)"><g id="legs" transform="translate(0 0)"><g transform=""><rect x="68" y="182" width="26" height="20" rx="10" fill="#E58A45" stroke="#2D2A4A" stroke-width="4.5" stroke-linejoin="round" stroke-linecap="round"></rect><rect x="63" y="192" width="36" height="17" rx="8.5" fill="#FFFDF8" stroke="#2D2A4A" stroke-width="4.5" stroke-linejoin="round" stroke-linecap="round"></rect></g><g transform=""><rect x="106" y="182" width="26" height="20" rx="10" fill="#E58A45" stroke="#2D2A4A" stroke-width="4.5" stroke-linejoin="round" stroke-linecap="round"></rect><rect x="101" y="192" width="36" height="17" rx="8.5" fill="#FFFDF8" stroke="#2D2A4A" stroke-width="4.5" stroke-linejoin="round" stroke-linecap="round"></rect></g></g><g id="body"><rect x="52" y="110" width="96" height="82" rx="26" fill="#E58A45" stroke="#2D2A4A" stroke-width="4.5" stroke-linejoin="round" stroke-linecap="round"></rect><path d="M80 116 L120 116 L100 152 Z" fill="#FFFDF8"></path><path d="M54 140 Q54 128 66 128 L85 128 L100 153 L115 128 L134 128 Q146 128 146 140 L146 177 Q146 190 132 190 L68 190 Q54 190 54 177 Z" fill="#6C63FF" stroke="#2D2A4A" stroke-width="4" stroke-linejoin="round"></path><rect x="55" y="160" width="90" height="10" fill="#F4F1FA" stroke="#2D2A4A" stroke-width="2.5"></rect><rect x="63" y="114" width="74" height="12" rx="6" fill="#5E5A80" stroke="#2D2A4A" stroke-width="3.5"></rect><rect x="91" y="123" width="18" height="18" rx="5" fill="#FFC21A" stroke="#2D2A4A" stroke-width="3"></rect><path d="M95.5 129.5 L100 127 L104.5 129.5 L100 132 Z M95.5 129.5 V135 L100 137.5 V132 M104.5 129.5 V135 L100 137.5" fill="none" stroke="#2D2A4A" stroke-width="1.5" stroke-linejoin="round"></path></g><g id="headwrap" transform="rotate(0 100 120)"><path d="M50 44 L36 -26 L94 22 Z" fill="#E58A45" stroke="#2D2A4A" stroke-width="4.5" stroke-linejoin="round" stroke-linecap="round"></path><path d="M150 44 L164 -26 L106 22 Z" fill="#E58A45" stroke="#2D2A4A" stroke-width="4.5" stroke-linejoin="round" stroke-linecap="round"></path><path d="M56 30 L47 -8 L80 22 Z M144 30 L153 -8 L120 22 Z" fill="#FFE3C8"></path><g id="head"><rect x="40" y="22" width="120" height="98" rx="34" fill="#E58A45" stroke="#2D2A4A" stroke-width="4.5" stroke-linejoin="round" stroke-linecap="round"></rect><path d="M93 25 Q100 22 107 25 L110 62 Q130 66 140 84 Q138 116 100 118 Q62 116 60 84 Q70 66 90 62 Z" fill="#FFFDF8"></path><rect x="88" y="72" width="24" height="16" rx="8" fill="#2D2A4A"></rect><ellipse cx="95" cy="76" rx="3.2" ry="2" fill="#FFFFFF" opacity=".75"></ellipse><rect x="40" y="22" width="120" height="98" rx="34" fill="none" stroke="#2D2A4A" stroke-width="4.5" stroke-linejoin="round" stroke-linecap="round"></rect></g><g id="eyes"><ellipse cx="70" cy="56" rx="14.0" ry="16.0" fill="#FFFFFF" stroke="#2D2A4A" stroke-width="3.5"></ellipse><ellipse cx="130" cy="56" rx="14.0" ry="16.0" fill="#FFFFFF" stroke="#2D2A4A" stroke-width="3.5"></ellipse><ellipse cx="72" cy="59" rx="9.0" ry="11.0" fill="#2D2A4A"></ellipse><ellipse cx="128" cy="59" rx="9.0" ry="11.0" fill="#2D2A4A"></ellipse><circle cx="75.5" cy="54" r="3.5" fill="#FFFFFF"></circle><circle cx="131.5" cy="54" r="3.5" fill="#FFFFFF"></circle></g><g id="mouth"><path d="M100 87 V92" stroke="#2D2A4A" stroke-width="3.5" stroke-linecap="round"></path><path d="M88 93 Q94 101 100 93 Q106 101 112 93" fill="none" stroke="#2D2A4A" stroke-width="3.5" stroke-linecap="round" stroke-linejoin="round"></path></g><g id="ears"></g><g id="accessory"></g></g><g id="paw-l" transform="translate(50 134) rotate(6)"><rect x="-13" y="-8" width="26" height="54" rx="13" fill="#E58A45" stroke="#2D2A4A" stroke-width="4.5" stroke-linejoin="round" stroke-linecap="round"></rect><rect x="-13" y="29" width="26" height="18" rx="9" fill="#FFFDF8" stroke="#2D2A4A" stroke-width="4.5" stroke-linejoin="round" stroke-linecap="round"></rect></g><g id="paw-r" transform="translate(150 134) rotate(-6)"><rect x="-13" y="-8" width="26" height="54" rx="13" fill="#E58A45" stroke="#2D2A4A" stroke-width="4.5" stroke-linejoin="round" stroke-linecap="round"></rect><rect x="-13" y="29" width="26" height="18" rx="9" fill="#FFFDF8" stroke="#2D2A4A" stroke-width="4.5" stroke-linejoin="round" stroke-linecap="round"></rect></g></g></svg>