<svg xmlns="http://www.w3.org/2000/svg" viewBox="0 0 96 96"><rect x="45" y="50" width="6" height="40" rx="3" fill="#3E9E4F" stroke="#2D2A4A" stroke-width="2.5" stroke-linejoin="round" stroke-linecap="round"></rect><path d="M47 78 C39 78 31 72 29 63 C37 63 44 68 47 78 Z M49 70 C57 70 64 64 66 56 C58 56 51 61 49 70 Z" fill="#7BCB5A" stroke="#2D2A4A" stroke-width="2.5" stroke-linejoin="round" stroke-linecap="round"></path><rect x="41" y="7" width="14" height="22" rx="7" fill="#FFFFFF" stroke="#2D2A4A" stroke-width="2.5" stroke-linejoin="round" stroke-linecap="round" transform="rotate(0 48 36)"></rect><rect x="41" y="7" width="14" height="22" rx="7" fill="#FFFFFF" stroke="#2D2A4A" stroke-width="2.5" stroke-linejoin="round" stroke-linecap="round" transform="rotate(45 48 36)"></rect><rect x="41" y="7" width="14" height="22" rx="7" fill="#FFFFFF" stroke="#2D2A4A" stroke-width="2.5" stroke-linejoin="round" stroke-linecap="round" transform="rotate(90 48 36)"></rect><rect x="41" y="7" width="14" height="22" rx="7" fill="#FFFFFF" stroke="#2D2A4A" stroke-width="2.5" stroke-linejoin="round" stroke-linecap="round" transform="rotate(135 48 36)"></rect><rect x="41" y="7" width="14" height="22" rx="7" fill="#FFFFFF" stroke="#2D2A4A" stroke-width="2.5" stroke-linejoin="round" stroke-linecap="round" transform="rotate(180 48 36)"></rect><rect x="41" y="7" width="14" height="22" rx="7" fill="#FFFFFF" stroke="#2D2A4A" stroke-width="2.5" stroke-linejoin="round" stroke-linecap="round" transform="rotate(225 48 36)"></rect><rect x="41" y="7" width="14" height="22" rx="7" fill="#FFFFFF" stroke="#2D2A4A" stroke-width="2.5" stroke-linejoin="round" stroke-linecap="round" transform="rotate(270 48 36)"></rect><rect x="41" y="7" width="14" height="22" rx="7" fill="#FFFFFF" stroke="#2D2A4A" stroke-width="2.5" stroke-linejoin="round" stroke-linecap="round" transform="rotate(315 48 36)"></rect><rect x="37" y="25" width="22" height="22" rx="8" fill="#FFC21A" stroke="#2D2A4A" stroke-width="3" stroke-linejoin="round" stroke-linecap="round"></rect><rect x="41" y="29" width="8" height="4" rx="2.0" fill="#FFFFFF" opacity=".5"></rect></svg>